<?xml version="1.0" encoding="utf-8"?>
<!-- Generator: Adobe Illustrator 16.0.0, SVG Export Plug-In . SVG Version: 6.00 Build 0)  -->
<!DOCTYPE svg PUBLIC "-//W3C//DTD SVG 1.1//EN" "http://www.w3.org/Graphics/SVG/1.1/DTD/svg11.dtd">
<svg version="1.1" id="Warstwa_2" xmlns="http://www.w3.org/2000/svg" xmlns:xlink="http://www.w3.org/1999/xlink" x="0px" y="0px"
	 width="414.417px" height="588px" viewBox="0 0 414.417 588" enable-background="new 0 0 414.417 588" xml:space="preserve">
<g>
	<path fill="#dd7f0f" d="M192.484,131.644c-3.334,0-7.083-1.379-11.206-4.131c-1.148-0.767-1.458-2.319-0.692-3.467
		c0.767-1.149,2.319-1.459,3.467-0.692c4.711,3.146,8.46,4.036,11.143,2.652c4.607-2.378,6.047-11.074,6.277-14.957
		c0.01-0.332,0.022-0.575,0.031-0.708c0.087-1.361,1.256-2.414,2.611-2.337c1.362,0.063,2.423,1.207,2.383,2.57
		c-0.004,0.129-0.012,0.341-0.027,0.623c-0.076,2.852,0.388,9.466,3.446,11.253c2.415,1.411,6.348-0.517,9.223-2.38
		c1.159-0.751,2.707-0.42,3.457,0.738c0.751,1.159,0.421,2.707-0.738,3.458c-5.901,3.827-10.771,4.665-14.473,2.497
		c-1.543-0.904-2.689-2.233-3.54-3.751c-1.336,3.052-3.342,5.883-6.356,7.438C195.946,131.246,194.275,131.644,192.484,131.644z"/>
</g>
<g>
	<path fill="#dd7f0f" d="M330.168,249.167c-0.747,0-1.486-0.333-1.979-0.97c-2.234-2.887-12.274-4.118-18.665-4.03
		c-0.146,0.001-0.296-0.01-0.442-0.035c-21.191-3.589-20.773-17.614-20.582-19.751c0.062-6.711,5.34-20.755,6.588-23.986
		c-0.97-4.431-6.646-5.215-6.896-5.248c-0.156-0.02-0.32-0.056-0.47-0.105c-6.82-2.235-18.723,6.461-22.735,9.999
		c-8.659,8.097-24.229,2.211-24.888,1.957c-7.73-2.961-8.445-9.624-7.732-12.817c1.765-10.432,10.087-14.551,14.73-15.401
		c1.987-1.381,5.281-5.325,7.089-7.748c4.425-9.278-1.632-17.625-1.694-17.709c-5.596-6.96-18.754-2.82-18.888-2.778
		c-5.858,1.778-12.643-0.815-13.909-1.337c-10.731-2.911-10.88-21.656-10.861-23.796c0.012-1.38,1.132-2.483,2.521-2.477
		c1.38,0.011,2.489,1.139,2.479,2.519c-0.033,4.438,1.233,17.445,7.273,18.955c0.137,0.034,0.27,0.08,0.398,0.136
		c0.056,0.024,6.074,2.6,10.604,1.229c0.622-0.204,16.517-5.24,24.34,4.493c0.39,0.522,8.065,11.108,2.128,23.17
		c-0.065,0.134-0.144,0.261-0.231,0.38c-0.561,0.759-5.576,7.477-9.092,9.512c-0.283,0.164-0.597,0.271-0.921,0.314
		c-0.371,0.054-9.397,1.471-11.046,11.43c-0.01,0.056-0.021,0.111-0.033,0.166c-0.17,0.799-0.771,5.019,4.642,7.091
		c0.136,0.052,13.311,5.009,19.731-0.992c1.737-1.533,16.718-14.371,27.418-11.124c3.621,0.517,10.28,3.232,11.104,10.154
		c0.049,0.412-0.005,0.831-0.158,1.216c-1.806,4.561-6.491,17.566-6.491,22.913c0,0.131-0.011,0.262-0.031,0.392
		c-0.06,0.436-1.35,11.207,16.235,14.274c3.445-0.012,18.014,0.254,22.439,5.971c0.846,1.092,0.646,2.662-0.446,3.507
		C331.242,248.997,330.703,249.167,330.168,249.167z"/>
</g>
<g>
	<path fill="#dd7f0f" d="M329.73,294.885c-2.941,0-5.649-0.149-8.11-0.448c-12.527-1.522-15.351-6.458-15.925-7.958
		c-12.396-25.13,1.159-45.375,1.743-46.227c0.784-1.138,2.339-1.426,3.477-0.646c1.137,0.78,1.427,2.334,0.648,3.472
		c-0.52,0.764-12.49,18.823-1.324,41.311c0.091,0.183,0.106,0.163,0.138,0.311c0.271,0.477,2.397,3.626,11.847,4.774
		c5.561,0.677,12.563,0.522,20.816-0.456c1.374-0.169,2.614,0.818,2.776,2.188c0.163,1.371-0.817,2.615-2.188,2.777
		C338.552,294.584,333.906,294.885,329.73,294.885z"/>
</g>
<g>
	<path fill="#dd7f0f" d="M251.668,424.5c-0.782,0-1.552-0.365-2.039-1.051c-9.043-12.716,9.37-33.951,10.158-34.849
		c14.319-15.381,28.34-21.207,35.904-23.365c-16.434-14.521-7.244-39.479-6.625-41.091c9.601-27.951,34.691-34.072,35.755-34.318
		c1.349-0.317,2.688,0.525,3.001,1.87c0.312,1.343-0.523,2.686-1.865,3l0,0c-0.234,0.055-23.511,5.821-32.176,31.115
		c-0.015,0.042-0.03,0.084-0.047,0.125c-0.434,1.082-10.417,26.686,9.214,38.419c0.926,0.553,1.393,1.637,1.158,2.688
		s-1.116,1.836-2.188,1.944c-0.183,0.02-19.139,2.255-38.422,22.966c-4.591,5.24-15.403,20.708-9.793,28.598
		c0.801,1.126,0.537,2.687-0.588,3.486C252.676,424.35,252.169,424.5,251.668,424.5z"/>
</g>
<g>
	<path fill="#dd7f0f" d="M209.917,474.5h-8.75c-0.756,0-1.471-0.342-1.945-0.93c-0.475-0.587-0.658-1.358-0.499-2.097
		c0.027-0.138,0.728-3.877-2.014-7.03c-3.119-3.587-9.653-5.207-18.903-4.697c-1.048,0.063-1.998-0.53-2.421-1.476
		c-0.423-0.946-0.218-2.056,0.515-2.788c0.305-0.318,7.771-8.357-0.462-24.603c-0.018-0.034-0.034-0.068-0.05-0.104
		c-0.252-0.553-6.397-13.665-21.159-14.783c-0.723-0.055-1.386-0.421-1.818-1.003c-0.432-0.581-0.591-1.322-0.434-2.03
		c0.195-0.899,4.601-22.272-13.452-34.384c-0.151-0.102-0.292-0.22-0.417-0.352c-0.142-0.148-14.349-14.877-29.741-16.743
		c-0.849-0.103-1.587-0.633-1.956-1.404c-0.368-0.772-0.316-1.679,0.138-2.404c0.591-0.949,14.343-23.56-1.104-43.386
		c-0.624-0.817-14.502-18.618-36.213-15.687c-2.141,0.487-3.514,0.632-3.575,0.638c-1.314,0.128-2.499-0.79-2.708-2.093
		c-0.208-1.303,0.631-2.544,1.919-2.834c1.364-0.307,2.704-0.542,4.017-0.71c6.85-1.607,20.911-6.856,23.039-23.06
		c0.033-1.193,0.045-13.494-12.636-24.395c-0.894-0.769-1.129-2.057-0.565-3.092c0.564-1.037,1.776-1.537,2.906-1.2
		c0.243,0.072,24.533,7.159,37.52,1.364c0.037-0.017,0.075-0.033,0.113-0.047c0.195-0.076,18.953-7.569,17.263-19.895
		c-3.948-1.06-13.792-3.923-17.648-7.057c-0.586-0.445-3.501-2.85-3.148-6.36c0.271-2.698,2.359-4.983,6.208-6.792
		c1.626-1.06,11.252-6.599,26.227-0.11c0.101,0.043,0.198,0.094,0.292,0.15c1.648,0.98,6.768,3.312,10.561,2.334
		c1.603-0.415,2.828-1.38,3.744-2.951c0.074-0.127,0.16-0.247,0.255-0.359c0.263-0.331,2.632-3.584-1.132-8.363
		c-2.025-1.678-16.205-13.853-16.462-25.964c-0.002-0.118,0.003-0.235,0.018-0.352c0.221-1.842,2.438-18.024,11.954-18.94
		c0.289-0.027,0.581-0.005,0.862,0.067c5.584,1.434,15.743,2.801,19.238,0.369c0.148-0.103,0.307-0.19,0.474-0.259
		c0.565-0.236,13.953-6.007,12.224-19.624c-0.174-1.37,0.795-2.621,2.165-2.795c1.375-0.17,2.622,0.796,2.795,2.165
		c1.75,13.779-8.937,22.158-15.04,24.776c-6.189,3.994-19.502,1.089-22.603,0.334c-4.094,0.887-6.506,9.821-7.083,14.324
		c0.375,10.397,14.671,22.068,14.816,22.186c0.135,0.109,0.259,0.232,0.368,0.366c5.25,6.444,3.264,12.357,1.368,14.764
		c-1.599,2.651-3.862,4.367-6.729,5.103c-6.164,1.579-13.049-2.139-14.205-2.801c-13.456-5.773-21.331-0.266-21.408-0.209
		c-0.132,0.095-0.272,0.177-0.42,0.245c-2.492,1.145-3.447,2.216-3.509,2.837c-0.066,0.657,0.825,1.606,1.19,1.873
		c0.039,0.028,0.077,0.058,0.114,0.089c3.125,2.574,13.524,5.568,17.267,6.504c0.889,0.222,1.585,0.914,1.814,1.801
		c4.436,17.19-18.32,26.535-19.956,27.181c-9.57,4.243-23.598,2.596-32.503,0.848c8.747,11.041,8.313,21.696,8.285,22.227
		c-0.003,0.062-0.009,0.124-0.017,0.185c-1.522,11.92-8.536,18.861-15.534,22.869c17.111,3.173,27.493,16.574,28.046,17.304
		c13.982,17.947,6.723,38.19,3.064,45.889c14.844,3.348,27.291,15.636,29.06,17.447c16.639,11.326,16.455,29.833,15.723,36.748
		c15.515,2.544,22.122,16.167,22.665,17.342c6.313,12.487,4.565,21.205,2.35,26.001c8.569,0.188,14.708,2.396,18.289,6.587
		c2.444,2.86,3.118,6.006,3.232,8.247h4.219c3.832-12.238,15.176-17.895,20.374-19.897c-2.747-7.699-2.724-14.898,0.077-21.434
		c5.536-12.918,19.899-18.387,20.508-18.613c1.296-0.481,2.734,0.176,3.215,1.471c0.481,1.293-0.176,2.731-1.468,3.214l0,0
		c-0.129,0.049-13.003,4.988-17.672,15.928c-2.529,5.926-2.219,12.646,0.921,19.973c0.285,0.665,0.268,1.422-0.048,2.073
		c-0.315,0.652-0.897,1.135-1.597,1.324c-0.161,0.044-16.614,4.716-19.97,19.032C212.085,473.701,211.078,474.5,209.917,474.5z"/>
</g>
<g>
	<path fill="#dd7f0f" d="M197.635,35.208c-1.573,0-2.958-0.701-3.898-1.975c-4.032-5.459,1.053-23.426,2.707-28.802
		c0.314-1.019,1.239-1.727,2.305-1.763c1.062-0.037,2.038,0.607,2.419,1.603c0.717,1.868,6.887,18.475,3.061,26.462
		c-0.985,2.056-2.586,3.49-4.63,4.147C198.92,35.098,198.259,35.208,197.635,35.208z M199.016,14.169
		c-1.792,7.873-2.424,14.604-1.31,16.035c0.072-0.008,0.19-0.029,0.362-0.084c0.743-0.239,1.252-0.716,1.65-1.548
		C201.136,25.613,200.379,19.686,199.016,14.169z"/>
</g>
<g>
	<path fill="#dd7f0f" d="M206.318,81.5c-1.527,0-3.135-0.105-4.787-0.533c-1.091,0.231-3.358,0.683-6.079,0.683
		c-10.496,0-17.186-5.777-18.4-15.915c-0.981-2.742-5.132-18.253,20.664-31.151c0.581-0.29,1.251-0.337,1.869-0.142
		c1.069,0.336,26.168,8.424,25.413,23.513c-0.002,0.038-0.005-0.033-0.009,0.006c-0.093,0.965-2.463,23.539-18.668,23.539
		C206.321,81.5,206.319,81.5,206.318,81.5z M201.584,76c0.234,0,0.469-0.078,0.694-0.012c1.427,0.413,2.785,0.512,4.04,0.512
		c0,0,0.001,0,0.002,0c11.41,0,13.564-17.855,13.686-18.965c0.374-8.88-14.188-15.721-20.968-18.056
		c-22.304,11.549-17.457,24.149-17.236,24.686c0.09,0.219,0.158,0.487,0.184,0.722c0.839,7.833,5.37,11.812,13.466,11.812
		c3.074,0,5.471-0.613,5.495-0.619C201.156,76.024,201.37,76,201.584,76z"/>
</g>
<g>
	<path fill="#dd7f0f" d="M230.833,107.5c-0.066,0-0.133,0.081-0.199,0.075c-7.186-0.575-12.396-3.293-15.486-8.161
		c-6.574-10.356-0.678-26.333-0.424-27.008c0.486-1.293,1.928-1.938,3.22-1.449c1.292,0.486,1.945,1.931,1.461,3.223l0,0
		c-0.054,0.143-5.272,14.361-0.029,22.604c2.218,3.487,5.99,5.412,11.529,5.879c1.453-0.039,14.885-0.438,20.509-2.213
		c1.316-0.414,2.721,0.314,3.137,1.631s-0.314,2.639-1.631,3.054c-6.599,2.083-21.403,2.366-22.03,2.366
		C230.871,107.5,230.852,107.5,230.833,107.5z"/>
</g>
<g>
	<path fill="#dd7f0f" d="M308.833,194c-1.017,0-1.939-0.619-2.32-1.571c-1.229-3.074-7.538-8.009-11.286-10.442
		c-13.321-7.193-16.098-13.204-16.371-13.867c-0.375-0.911-0.181-1.957,0.497-2.672c0.678-0.715,1.714-0.965,2.642-0.64
		c36.313,12.728,61.428-11.442,62.671-12.673c10.591-12.381-1.884-32.25-3.271-34.369c-14.128-13.895-23.112-11.203-24.727-10.546
		c-2.516,2.891-0.255,6.494,0.141,7.075c8.91,10.343,12.004,23.756,12.132,24.323c0.023,0.106,0.04,0.214,0.05,0.322
		c0.236,2.592-0.545,4.948-2.32,7.001c-5.826,6.739-20.958,7.902-23.348,8.045c-1.238,0.216-2.444,0.317-3.614,0.317
		c-15.386,0.002-24.786-17.432-25.714-19.229c-12.302-19.392-1.063-33.018,0.553-34.81c7.764-10.99,28.926-23.681,30.902-24.851
		c1.606-1.204,2.529-2.397,2.603-3.369c0.022-0.299-0.046-0.563-0.125-0.757c-5.539-1.521-15.749,0.549-19.594,1.577
		c-44.492,19.519-33.919,51.421-33.807,51.742c0.456,1.303-0.23,2.729-1.533,3.186c-1.304,0.454-2.729-0.229-3.186-1.533
		c-0.133-0.379-3.217-9.422-0.143-21.175c2.802-10.708,11.467-25.798,36.836-36.875c0.11-0.049,0.226-0.089,0.342-0.121
		c0.631-0.171,15.525-4.176,23.513-1.271c0.344,0.125,0.655,0.324,0.913,0.582c0.205,0.205,1.99,2.082,1.769,5.022
		c-0.191,2.538-1.779,4.924-4.72,7.091c-0.069,0.051-0.142,0.099-0.216,0.142c-0.222,0.13-22.285,13.186-29.55,23.608
		c-0.084,0.121-0.179,0.234-0.283,0.338c-0.448,0.457-11.037,11.578,0.006,28.887c0.046,0.072,0.088,0.146,0.126,0.222
		c0.095,0.188,9.768,18.957,24.182,16.33c0.103-0.019,0.207-0.031,0.312-0.037c4.242-0.235,16.106-1.831,19.996-6.334
		c0.837-0.97,1.2-1.964,1.134-3.116c-0.372-1.512-3.445-13.276-11.079-22.083c-0.048-0.056-0.094-0.114-0.137-0.173
		c-1.931-2.672-4.291-9.017,0.592-13.899c0.147-0.147,0.313-0.275,0.491-0.382c0.503-0.299,12.543-7.108,31.202,11.374
		c0.111,0.11,0.212,0.23,0.301,0.359c0.669,0.971,15.745,23.261,4.243,39.148c20.832-6.102,39.49,7.614,40.364,8.269
		c0.106,0.08,0.207,0.168,0.3,0.265c8.455,8.769,1.505,20.43-3.351,25.371c-0.712,0.724-1.793,0.944-2.729,0.562
		c-0.939-0.385-1.554-1.299-1.554-2.314c0-5.097-1.494-9.071-4.44-11.813c-5.552-5.164-14.456-4.585-14.545-4.577
		c-0.096,0.007-0.192,0.008-0.289,0.004c-7.339-0.317-28.595,3.264-28.809,3.3c-0.056,0.01-0.112,0.017-0.168,0.023
		c-18.094,1.809-23.126,19.014-23.175,19.188c-0.29,1.031-1.204,1.764-2.273,1.821C308.922,193.999,308.877,194,308.833,194z
		 M288.899,171.958c2.093,1.668,4.941,3.604,8.787,5.674c0.058,0.031,0.114,0.065,0.17,0.101c0.844,0.544,6.642,4.352,10.432,8.575
		c3.097-6.197,10.511-16.746,25.545-18.287c1.684-0.283,21.874-3.652,29.643-3.357c1.422-0.074,11.406-0.367,18.156,5.913
		c2.588,2.407,4.352,5.434,5.275,9.039c2.234-3.783,4.007-9.174-0.061-13.559c-1.976-1.399-22.474-15.276-42.336-4.683
		c-0.973,0.518-2.136,0.33-2.896-0.39C332.165,167.59,313.29,177.271,288.899,171.958z"/>
</g>
<g>
	<path fill="#dd7f0f" d="M389.348,341.919c-4.435,0-11.186-0.762-15.86-4.799c-3.385-2.924-5.118-7.002-5.153-12.125
		c-0.189-1.588-1.208-12.363,5.146-18.173c0.48-0.409,10.118-8.429,18.219-3.355c1.1,0.52,6.055,3.092,7.676,7.989
		c1.002,3.028,0.56,6.231-1.316,9.523c-0.397,0.847-2.228,4.327-6.023,5.669c-2.602,0.919-5.414,0.606-8.358-0.93
		c-0.299-0.168-5.318-3.139-2.889-10.652c0.426-1.314,1.837-2.033,3.148-1.609c1.313,0.425,2.034,1.834,1.609,3.148
		c-1.062,3.282,0.25,4.506,0.555,4.738c1.622,0.822,3.058,1.021,4.268,0.592c2.064-0.73,3.162-3.073,3.172-3.096
		c0.038-0.087,0.081-0.173,0.13-0.255c1.197-2.069,1.511-3.886,0.958-5.556c-1.073-3.243-5.077-5.045-5.117-5.063
		c-0.13-0.056-0.255-0.123-0.373-0.2c-4.973-3.232-12.284,2.75-12.355,2.812c-4.659,4.263-3.486,13.821-3.473,13.916
		c0.016,0.114,0.023,0.228,0.023,0.343c0,3.727,1.116,6.504,3.412,8.494c4.948,4.286,13.849,3.643,15.943,3.419
		c18.076-10.655,15.059-26.924,15.026-27.089c-0.044-0.218-0.059-0.44-0.043-0.662c1.185-17.181-27.028-27.032-27.313-27.129
		c-0.138-0.047-0.272-0.107-0.4-0.177c-7.505-4.141-30.386-5.994-38.569-6.358c-0.478-0.021-0.939-0.179-1.33-0.455
		c-2.591-1.829-3.928-3.912-3.975-6.192c-0.063-3.059,2.289-4.959,2.558-5.166c0.239-0.184,0.511-0.324,0.8-0.411
		c22.676-6.863,28.659-20.47,29.313-22.131c1.979-9.972,0.229-13.109-0.62-13.997c-0.302-0.315-0.627-0.493-0.918-0.591
		c-7.15,11.162-19.659,11.043-25.781,9.27c-16.519-0.509-22.019-16.22-22.627-24.58c-0.6-4.831,0.425-8.925,3.047-12.168
		c4.413-5.46,11.844-6.437,12.967-6.555c5.06-0.901,9.252-0.057,12.464,2.503c3.484,2.775,4.849,6.888,5.38,9.472
		c8.271-0.84,12.099-11.537,12.14-11.653c0.016-0.046,0.033-0.093,0.053-0.138c3.5-8.399-7.463-19.373-11.982-22.892
		c-1.089-0.849-1.284-2.419-0.437-3.509c0.849-1.09,2.418-1.286,3.509-0.437c0.785,0.612,19.136,15.109,13.552,28.696
		c-0.462,1.283-5.69,14.986-17.798,14.988c-0.463,0-0.933-0.02-1.416-0.062c-1.25-0.107-2.227-1.124-2.283-2.377
		c-0.003-0.044-0.327-5.408-3.854-8.196c-2.056-1.624-4.93-2.113-8.535-1.458c-0.078,0.015-0.157,0.025-0.236,0.032
		c-0.056,0.005-6.333,0.62-9.651,4.751c-1.731,2.155-2.387,4.996-1.948,8.442c0.007,0.047,0.011,0.094,0.015,0.142
		c0.059,0.801,1.636,19.719,18.085,20.008c0.238,0.004,0.475,0.042,0.702,0.113c0.567,0.174,14.183,4.175,21.071-8.166
		c0.351-0.628,0.955-1.076,1.659-1.226c0.359-0.079,3.597-0.678,6.286,1.979c3.261,3.222,3.922,9.369,2.021,18.793
		c-0.022,0.113-0.053,0.224-0.091,0.333c-0.247,0.704-6.297,17.208-32.056,25.221c-0.182,0.222-0.399,0.561-0.387,0.88
		c0.019,0.471,0.497,1.114,1.309,1.779c4.899,0.254,30.346,1.795,39.787,6.831c2.979,1.05,31.616,11.678,30.499,31.849
		c0.4,2.825,2.063,20.807-17.935,32.281c-0.271,0.156-0.57,0.26-0.881,0.306C393.67,341.669,391.889,341.919,389.348,341.919z"/>
</g>
<g>
	<path fill="#dd7f0f" d="M328.167,347.501c-0.99,0-1.927-0.592-2.319-1.566c-5.922-14.693,5.566-26.615,12.608-30.972
		c14.445-11.941,36.156-8.904,37.075-8.77c1.366,0.201,2.311,1.471,2.109,2.837c-0.202,1.365-1.464,2.309-2.836,2.109
		c-0.237-0.034-20.591-2.838-33.285,7.777c-0.096,0.081-0.197,0.153-0.305,0.219c-0.677,0.415-16.595,10.376-10.73,24.929
		c0.517,1.281-0.104,2.737-1.384,3.253C328.794,347.442,328.478,347.501,328.167,347.501z"/>
</g>
<g>
	<path fill="#dd7f0f" d="M330.05,392.5c-0.771,0-1.531-0.355-2.021-1.025c-8.095-11.079-10.668-21.38-7.648-30.615
		c0.824-2.521,2.017-4.808,3.444-6.87c-0.934,0.917-1.82,1.907-2.643,2.977c-4.901,6.378-6.683,14.512-5.292,24.179
		c0.196,1.366-0.752,2.634-2.119,2.83c-1.363,0.2-2.633-0.753-2.83-2.119c-1.592-11.066,0.528-20.476,6.301-27.968
		c10.412-13.512,28.857-15.781,29.638-15.871c1.281-0.16,2.46,0.701,2.73,1.959c0.271,1.259-0.46,2.517-1.687,2.907
		c-0.182,0.058-18.392,6.029-22.797,19.55c-2.48,7.615-0.146,16.394,6.939,26.093c0.814,1.114,0.571,2.679-0.544,3.493
		C331.079,392.344,330.562,392.5,330.05,392.5z"/>
</g>
<g>
	<path fill="#dd7f0f" d="M333.13,457.453c-4.711,0.001-9.799-1.171-15.081-4.211c-2.384-1.027-21.904-10.359-12.74-36.324
		c0.088-0.248,0.214-0.481,0.374-0.69c0.396-0.513,9.732-12.442,20.651-7.05c1.851,0.613,13.248,4.889,14.568,17.563
		c0.018,0.164,0.019,0.33,0.003,0.495c-0.037,0.386-1.002,9.465-10.15,12.162c-0.347,0.102-0.711,0.126-1.065,0.076
		c-0.252-0.037-6.217-0.957-10.513-6.432c-0.853-1.086-0.663-2.657,0.424-3.51c1.084-0.854,2.657-0.664,3.51,0.424
		c2.403,3.062,5.581,4.141,6.804,4.457c4.809-1.739,5.815-6.385,5.983-7.437c-1.219-9.995-11.122-13.051-11.223-13.081
		c-0.147-0.044-0.29-0.101-0.427-0.171c-6.556-3.357-13.062,3.726-14.366,5.265c-7.696,22.469,9.439,29.39,10.177,29.675
		c0.123,0.047,0.25,0.107,0.364,0.174c18.922,10.998,34.845-6.269,36.267-7.876c11.38-16.564-0.128-39.339-0.245-39.567
		c-0.04-0.076-0.075-0.154-0.106-0.234c-1.5-3.834-14.714-17.917-22.689-25.894c-0.065-0.065-0.127-0.134-0.185-0.206
		c-7.997-9.996,9.682-33.449,11.725-36.091c0.845-1.092,2.414-1.294,3.506-0.448c1.093,0.844,1.294,2.414,0.45,3.506
		c-7.237,9.369-15.646,24.745-11.85,29.814c2.636,2.641,21.1,21.261,23.647,27.368c1.034,2.051,12.686,26.127-0.223,44.715
		c-0.049,0.069-0.101,0.137-0.155,0.201C360.416,444.301,348.904,457.451,333.13,457.453z"/>
</g>
<g>
	<path fill="#dd7f0f" d="M255.667,461.751c-0.964,0-1.882-0.562-2.292-1.501c-6.594-15.111,8.595-31.066,9.244-31.738
		c0.1-0.103,0.208-0.197,0.324-0.282c10.928-7.964,17.058-10.521,19.793-11.339c6.042-16.942,20.641-18.503,22.376-18.628
		c12.462-1.876,21.851,9.943,22.244,10.448c0.851,1.088,0.657,2.659-0.431,3.509c-1.087,0.852-2.655,0.659-3.507-0.427l0,0
		c-0.079-0.101-8.047-10.068-17.651-8.573c-0.087,0.014-0.175,0.022-0.263,0.027c-0.541,0.031-13.572,0.969-18.454,16.503
		c-0.303,0.962-1.153,1.648-2.158,1.739c0.01,0.001-5.33,0.845-18.813,10.643c-1.397,1.52-13.088,14.737-8.122,26.118
		c0.553,1.266-0.025,2.739-1.291,3.291C256.341,461.684,256.001,461.751,255.667,461.751z"/>
</g>
<g>
	<path fill="#dd7f0f" d="M198.234,504.398c-1.95,0-3.914-0.134-5.882-0.425c-9.99-1.481-18.479-6.815-25.268-15.868
		c-3.63,3.184-11.388,8.273-21.691,5.487c-1.689-0.385-17.726-4.563-17.726-23.926c0.021-0.625,0.57-13.201,7.99-19.735
		c3.306-2.911,7.403-4.179,12.177-3.76c1.173,0.056,4.827,0.354,6.646,1.947c1.039,0.909,1.144,2.488,0.235,3.527
		s-2.488,1.146-3.528,0.234c-0.413-0.293-2.188-0.65-3.631-0.717c-0.037-0.001-0.076-0.004-0.113-0.007
		c-3.427-0.312-6.201,0.518-8.482,2.527c-5.825,5.13-6.292,15.966-6.296,16.075c0.002,16.026,13.248,18.841,13.812,18.953
		c0.057,0.011,0.125,0.026,0.182,0.042c11.147,3.043,18.754-6.002,18.83-6.095c0.503-0.61,1.272-0.942,2.054-0.907
		c0.79,0.04,1.514,0.45,1.954,1.107c6.238,9.326,14.168,14.765,23.571,16.164c20.951,3.12,42.798-14.529,43.017-14.708
		c0.561-0.458,1.292-0.649,2.006-0.53c0.713,0.122,1.34,0.548,1.715,1.166c3.813,6.281,7.607,8.629,7.646,8.651
		c0.03,0.019,0.075,0.047,0.104,0.066c9.61,6.403,21.733-2.572,21.855-2.664c0.126-0.095,0.266-0.182,0.408-0.251
		c9.825-4.813,9.701-18.005,9.62-20.046c-1.838-5.51-8.24-9.664-10.992-11.032c-5.492-0.606-11.281,3.327-11.34,3.368
		c-0.047,0.032-0.095,0.064-0.144,0.094c-7.105,4.301-5.341,8.514-5.116,8.979c0.133,0.274,0.236,0.617,0.263,0.921
		c0.498,5.87,5.666,7.517,6.511,7.746c4.002,0.453,5.14-0.488,5.393-0.79c0.472-0.559,0.261-1.525,0.258-1.535
		c-0.012-0.042-0.023-0.084-0.033-0.127c-1.1-4.58-5.199-5.604-5.373-5.646c-1.334-0.316-2.176-1.652-1.872-2.989
		c0.304-1.338,1.62-2.179,2.957-1.892c0.297,0.065,7.278,1.666,9.14,9.316c0.167,0.623,0.827,3.628-1.254,6.096
		c-1.881,2.23-5.229,3.074-9.963,2.514c-0.083-0.01-0.166-0.024-0.248-0.042c-3.27-0.729-9.565-4.119-10.45-11.764
		c-1.37-3.196-1.44-9.802,7.134-15.025c0.863-0.59,7.895-5.215,15.227-4.124c0.238,0.035,0.47,0.104,0.688,0.206
		c0.46,0.214,11.296,5.343,14.089,14.549c0.053,0.176,0.087,0.356,0.101,0.539c0.056,0.749,1.208,18.324-12.185,25.07
		c-1.896,1.372-15.479,10.625-27.405,2.715c-0.581-0.36-4.046-2.644-7.777-7.985C231.317,494.046,215.385,504.398,198.234,504.398z"
		/>
</g>
<g>
	<path fill="#dd7f0f" d="M197.871,534.271c-4.307,0-12.343-2.918-15.371-14.383c-0.087-0.297-2.471-8.84,4.044-19.313
		c0.729-1.173,2.271-1.533,3.443-0.803c1.172,0.729,1.532,2.271,0.802,3.443c-5.273,8.478-3.544,15.075-3.467,15.352
		c2.904,10.993,10.607,10.712,10.933,10.688c3.455-0.145,8.139-5.646,10.293-9.082c1.982-3.114,0.133-12.91-1.812-18.876
		c-0.428-1.313,0.289-2.724,1.602-3.151c1.314-0.429,2.724,0.287,3.152,1.6c0.904,2.772,5.221,16.914,1.286,23.097
		c-0.7,1.121-7.144,11.109-14.255,11.406C198.315,534.264,198.097,534.271,197.871,534.271z"/>
</g>
<g>
	<path fill="#dd7f0f" d="M196.091,564.5c-0.688,0-5.685-0.012-9.24-3.701c-2.509-2.605-3.668-6.177-3.445-10.745
		c-0.252-1.942-0.788-11.05,9.775-18.847c0.85-0.627,1.968-0.62,2.813-0.092c0.019-0.074,0.042-0.14,0.067-0.213
		c0.463-1.3,1.892-1.979,3.195-1.511c0.514,0.183,12.625,4.66,15.108,19.186c0.045,0.262,0.048,0.404,0.009,0.667
		c-0.797,5.319-5.627,15.256-18.207,15.256C196.157,564.5,196.131,564.5,196.091,564.5z M197.089,533.869
		c-0.138,0.539-0.455,1.036-0.938,1.393c-9.124,6.733-7.795,14.187-7.781,14.261c0.04,0.207,0.054,0.417,0.042,0.627
		c-0.193,3.221,0.483,5.668,2.011,7.274c2.219,2.335,5.686,2.336,5.703,2.326c10.443,0,12.832-8.787,13.235-10.749
		c-2.156-11.339-11.687-14.861-11.784-14.896C197.403,534.043,197.24,533.963,197.089,533.869z"/>
</g>
<g>
	<path fill="#dd7f0f" d="M194.976,586.858c-1.4,0-3.374-0.315-5.165-1.737c-2.394-1.9-3.62-5.092-3.644-9.489
		c-0.127-1.347-0.639-9.854,5.899-15.303c0.992-0.826,2.437-0.756,3.342,0.127c0.677-0.68,1.714-0.938,2.671-0.571
		c0.364,0.141,8.919,3.565,8.335,15.24c-0.009,0.169-0.034,0.336-0.076,0.5c-0.097,0.374-2.449,9.194-9.54,11.044
		C196.613,586.712,195.927,586.858,194.976,586.858z M195.439,564.013c-0.055,0.055-0.112,0.107-0.172,0.158
		c-4.846,4.038-4.125,10.969-4.118,11.038c0.011,0.094,0.017,0.197,0.017,0.291c0,2.822,0.606,4.795,1.752,5.704
		c1.135,0.9,2.666,0.614,2.68,0.611c3.308-0.864,5.264-5.289,5.833-7.21c0.271-7.877-5.092-10.032-5.147-10.053
		C195.958,564.427,195.674,564.241,195.439,564.013z"/>
</g>
<g>
	<path fill="#dd7f0f" d="M148.077,478.114c-3.236,0-5.779-1.583-5.917-1.67c-3.351-2.023-5.32-4.608-5.808-7.655
		c-0.731-4.576,2.243-8.189,2.585-8.587c0.901-1.046,2.48-1.163,3.525-0.265c1.043,0.897,1.164,2.468,0.274,3.515
		c-0.059,0.071-1.831,2.256-1.443,4.575c0.253,1.516,1.43,2.917,3.498,4.166c0.056,0.034,2.489,1.503,4.738,0.672
		c1.719-0.633,3.096-2.503,4.092-5.558c0.36-1.1,0.978-4.343-0.42-6.272c-0.979-1.351-2.941-2.035-5.833-2.035
		c-1.381,0-2.5-1.119-2.5-2.5s1.119-2.5,2.5-2.5c4.603,0,7.935,1.391,9.904,4.132c3.122,4.348,1.312,10.107,1.096,10.75
		c-1.499,4.593-3.916,7.527-7.176,8.7C150.122,477.967,149.067,478.114,148.077,478.114z"/>
</g>
<g>
	<path fill="#dd7f0f" d="M152.512,459.933c-0.185,0-0.373-0.021-0.56-0.064c-1.345-0.308-2.187-1.646-1.88-2.991
		c0.151-0.673,3.409-15.878-7.786-23.293c-0.088-0.058-0.172-0.122-0.252-0.19c-0.087-0.074-8.922-7.563-18.06-7.563
		c-0.089,0-0.178,0.001-0.268,0.003c-0.954,0.004-1.762-0.47-2.213-1.263c-0.452-0.794-0.435-1.771,0.043-2.548
		c0.06-0.119,2.181-4.388-7.406-9.811c-1.926-0.363-10.726-1.938-15.515-1.396c-1.375,0.163-2.611-0.827-2.768-2.199
		s0.828-2.611,2.2-2.768c6.154-0.711,16.983,1.44,17.441,1.532c0.252,0.05,0.494,0.139,0.719,0.263
		c5.762,3.185,9.208,6.793,10.242,10.726c0.254,0.966,0.333,1.852,0.311,2.634c9.328,1.139,17.272,7.542,18.411,8.496
		c13.963,9.374,9.952,27.711,9.774,28.489C154.682,459.147,153.652,459.933,152.512,459.933z"/>
</g>
<g>
	<path fill="#dd7f0f" d="M74.566,450.029c-4.464,0-9.145-1.186-13.409-4.568c-2.51-1.27-16.622-9.772-15.488-39.889
		c0.007-0.193,0.037-0.385,0.088-0.57c0.191-0.693,4.808-17.103,16.31-28.604c0.447-0.477,11.974-13.039,3.665-31.017
		c-0.579-1.253-0.033-2.739,1.221-3.318s2.739-0.033,3.318,1.221c9.767,21.131-4.48,36.454-4.625,36.606
		c-9.86,9.859-14.361,24.065-14.99,26.175c-0.981,28.689,12.695,34.911,12.834,34.971c0.213,0.092,0.413,0.213,0.592,0.359
		c11.088,9.044,27.174-1.843,27.335-1.954c10.513-7.01,8.144-22.381,8.118-22.535c-0.016-0.096-0.026-0.197-0.031-0.294
		c-0.114-2.548-0.833-4.32-2.135-5.27c-2.185-1.592-5.673-0.735-5.708-0.727c-0.153,0.042-0.309,0.069-0.467,0.081
		c-2.978,0.229-6.691,2.836-8.307,4.17c-4.305,9.724-2.937,12.359-2.717,12.684c0.077,0.027,0.153,0.059,0.228,0.094
		c0.708-0.186,2.297-1.478,3.348-2.742c0.882-1.061,2.458-1.207,3.521-0.325c1.062,0.883,1.208,2.459,0.325,3.521
		c-1.227,1.476-5.439,6.024-9.232,4.125c-0.917-0.33-2-1.117-2.721-2.514c-1.775-3.435-0.82-9.128,2.918-17.405
		c0.144-0.318,0.354-0.604,0.615-0.837c0.603-0.537,5.981-5.207,11.425-5.735c1.164-0.267,5.989-1.145,9.717,1.57
		c2.563,1.866,3.968,4.876,4.18,8.944c0.291,1.936,2.427,18.869-10.271,27.334C93.7,443.938,84.688,450.028,74.566,450.029z"/>
</g>
<g>
	<path fill="#dd7f0f" d="M78.835,399.333c-0.762,0-1.515-0.347-2.006-1.005c-0.826-1.107-0.598-2.674,0.509-3.499
		c9.009-6.721,4.308-23.468,4.259-23.637c-0.047-0.163-0.077-0.33-0.09-0.499c-1.067-13.728-16.423-26.29-16.578-26.415
		c-0.824-0.666-1.139-1.779-0.786-2.778c0.354-0.999,1.297-1.667,2.356-1.667c1.249,0,7.068,2.907,11.54,5.995
		c7.565,5.226,16.649,14.2,16.96,27.278c0.033,1.381-1.06,2.526-2.44,2.559c-1.425,0.06-2.526-1.059-2.559-2.439
		c-0.195-8.208-4.684-14.611-9.7-19.228c3.075,4.66,5.656,10.191,6.171,16.062c0.66,2.453,5.03,20.441-6.145,28.777
		C79.879,399.172,79.355,399.333,78.835,399.333z"/>
</g>
<g>
	<path fill="#dd7f0f" d="M77.503,349.5c-0.086,0-0.173-0.004-0.261-0.014c-1.37-0.142-2.366-1.364-2.229-2.733
		c0.015-0.168,0.974-12.221-10.515-27.59c-0.709-0.934-7.19-8.941-16.587-3.038c-0.991,1.033-3.155,3.84-2.646,5.958
		c0.322,1.343-0.505,2.692-1.848,3.015c-1.346,0.322-2.692-0.505-3.015-1.848c-1.296-5.403,3.631-10.339,4.197-10.884
		c0.115-0.111,0.24-0.21,0.375-0.297c10.912-7.07,20.163-0.408,23.53,4.103c12.771,17.085,11.542,30.523,11.483,31.088
		C79.853,348.544,78.768,349.5,77.503,349.5z"/>
</g>
<g>
	<path fill="#dd7f0f" d="M24.178,352.997c-2.333,0-4.801-0.442-7.369-1.48c-1.947-0.636-18.9-6.826-15.445-28.249
		c0.143-0.908,3.841-22.594,30.374-35.516c0.112-0.055,0.229-0.101,0.347-0.138c6.045-1.897,21.049-9.464,25.977-17.384
		c0.334-0.538,0.646-0.813,0.917-1.188c0.031-0.043,7.817-6.027,0.988-26.069c-0.445-1.307,0.253-2.727,1.56-3.172
		c1.308-0.447,2.728,0.252,3.172,1.56c7.063,20.726-0.283,28.14-2.096,31.327c-6.25,11.75-26.467,18.875-28.837,19.639
		C9.829,304.063,6.435,323.25,6.301,324.063c-2.924,18.129,11.44,22.521,12.053,22.7c0.085,0.024,0.178,0.057,0.26,0.09
		c11.801,4.838,20.057-7.283,20.139-7.406c0.05-0.075,0.104-0.147,0.162-0.217c7.271-8.698-1.361-20.667-2.808-22.549
		c-3.8-2.455-8.962,0.035-9.519,0.317c-4.979,3.196-3.195,9.118-2.934,9.898c0.917,1.973,1.964,3.139,2.954,3.287
		c1.268,0.193,2.911-1.149,3.51-1.827c0.067-0.076,0.149-0.16,0.226-0.227c1.286-1.139,1.218-1.902,1.195-2.152
		c-0.145-1.617-2.467-3.543-3.504-4.174c-1.18-0.717-1.555-2.255-0.837-3.435c0.717-1.179,2.254-1.554,3.435-0.837
		c0.56,0.34,5.479,3.456,5.887,8c0.142,1.586-0.225,3.945-2.747,6.238c-0.717,0.784-3.869,3.932-7.864,3.364
		c-2.835-0.406-5.14-2.513-6.85-6.262c-0.025-0.054-0.047-0.109-0.068-0.165c-1.341-3.6-2.02-11.575,5.013-15.99
		c0.041-0.025,0.082-0.05,0.124-0.073c0.346-0.191,8.546-4.609,15.167,0.162c0.171,0.123,0.326,0.268,0.461,0.43
		c0.557,0.669,13.473,16.493,3.082,29.097C39.928,346.628,33.031,352.996,24.178,352.997z"/>
</g>
<g>
	<path fill="#dd7f0f" d="M57.494,244.636c-4.057,0-8.673-0.891-12.639-3.926c-7.077-5.416-9.884-15.944-8.343-31.293
		c0.086-0.862,0.613-1.618,1.392-1.998c0.78-0.379,1.699-0.33,2.431,0.134c4.664,2.945,18.119,10.25,24.3,8.689
		c0.128-0.032,0.258-0.055,0.39-0.066c0.82-0.075,20.166-2.023,20.308-16.701c-0.015-0.528-0.563-14.841-15.688-15.983
		c-0.242-0.018-0.48-0.071-0.707-0.158c-0.073-0.027-9.476-3.278-26.771,4.29c-1.175,0.515-2.551,0.055-3.181-1.064
		c-0.386-0.685-9.374-16.918-3.091-28.604c3.435-6.389,10.587-10.017,21.258-10.783c1.381-0.097,2.574,0.938,2.673,2.314
		c0.099,1.377-0.938,2.574-2.314,2.673c-8.845,0.635-14.634,3.378-17.207,8.153c-3.881,7.203,0.07,17.517,2.052,21.807
		c16.251-6.556,25.934-4.225,27.978-3.588c15.513,1.338,19.868,14.24,19.998,20.919c-0.147,15.331-16.094,20.863-24.676,21.688
		c-7.174,1.658-18.628-3.987-24.473-7.273c-0.582,11.315,1.663,18.996,6.69,22.859c7.174,5.512,18.128,1.479,18.239,1.438
		c1.289-0.489,2.733,0.163,3.222,1.452c0.489,1.29-0.156,2.73-1.444,3.222C67.572,242.957,63.061,244.636,57.494,244.636z"/>
</g>
<g>
	<path fill="#dd7f0f" d="M95.5,183.5c-0.023,0-0.046,0-0.07,0c-1.051,0-1.972-0.715-2.304-1.713
		c-0.069-0.207-7.056-20.819-19.778-23.334c-0.204-0.041-0.403-0.106-0.591-0.196c-0.291-0.139-7.176-3.428-12.073-6.466
		c-0.163-0.101-0.314-0.221-0.45-0.356c-0.039-0.038-4.783-4.613-12.03-4.613c-2.642,0-5.341,0.604-8.023,1.796
		c-0.127,0.057-0.259,0.103-0.395,0.137c-0.037,0.01-4.904,1.355-5.48,5.275c-0.006,0.038-0.012,0.076-0.02,0.114
		c-0.281,1.441-2.934,14.167-9.556,17.284c-0.548,0.259-1.172,0.309-1.755,0.141c-1.746-0.502-5.083-2.391-6.514-6.281
		c-1.825-4.961-0.102-11.467,5.122-19.337c0.033-0.05,0.068-0.099,0.104-0.146c0.426-0.552,10.594-13.516,24.073-13.516
		c2.279,0,4.538,0.377,6.719,1.122c1.619,0.312,12.38,2.49,17.907,6.175c0.137,0.091,0.265,0.196,0.381,0.312
		c4.379,4.377,12.76,11.64,16.608,12.495c0.183,0.041,0.361,0.102,0.53,0.182c0.097,0.046,10.048,4.688,20.866,4.688
		c3.809,0,7.294-0.576,10.36-1.713c1.233-0.458,2.608,0.119,3.148,1.317c0.54,1.198,0.06,2.61-1.098,3.231
		c-0.187,0.1-18.754,10.165-23.355,21.82C97.448,182.875,96.524,183.5,95.5,183.5z M74.641,153.614
		c10.981,2.378,17.972,14.455,21.182,21.502c3.375-5.048,8.38-9.493,12.863-12.854c-11.09-0.022-20.972-4.282-22.679-5.058
		c-6.309-1.634-16.694-11.709-18.589-13.587c-5.093-3.263-15.931-5.307-16.041-5.327c-0.126-0.023-0.251-0.057-0.372-0.1
		c-1.703-0.599-3.467-0.902-5.244-0.902c-10.582,0-19.335,10.6-20.068,11.513c-5.291,8.002-5.39,12.442-4.538,14.759
		c0.545,1.481,1.573,2.333,2.318,2.78c2.971-2.443,5.212-9.628,5.897-13.102c1.007-6.58,7.6-8.864,8.947-9.264
		c3.272-1.43,6.598-2.154,9.888-2.154c8.453,0,14.112,4.735,15.328,5.851C67.658,150.207,73.349,152.989,74.641,153.614z"/>
</g>
<g>
	<path fill="#dd7f0f" d="M118.327,146.005c-3.117,0-5.54-0.497-6.353-0.686c-13.02-0.694-23.47-13.323-23.911-13.864
		c-0.155-0.19-0.281-0.402-0.375-0.629c-4.459-10.836,1.829-17.314,3.027-18.417c3.906-4.523,5.459-9.053,6.069-11.695
		c-9.836-0.339-19.098,7.136-20.068,7.942c-10.287,10.886-5.337,32.211-5.285,32.426c0.321,1.342-0.506,2.691-1.848,3.014
		c-1.342,0.318-2.691-0.503-3.014-1.845c-0.237-0.986-5.678-24.309,6.625-37.148c0.055-0.057,0.112-0.111,0.172-0.163
		c0.533-0.46,13.217-11.25,26.727-8.904c1.238,0.215,2.125,1.314,2.071,2.569c-0.015,0.356-0.454,8.806-7.78,17.204
		c-0.085,0.098-0.179,0.189-0.279,0.273c-0.193,0.168-5.027,4.501-1.936,12.483c1.526,1.752,10.336,11.361,20.267,11.77
		c0.181,0.008,0.361,0.035,0.537,0.081c0.078,0.021,8.363,2.105,14.651-1.739c3.406-2.082,5.684-5.605,6.77-10.472
		c0.025-0.113,0.058-0.224,0.099-0.332c0.175-0.499,4.269-12.918-14.17-28.544c-8.967-6.053-24.82-15.733-29.554-16.174
		c-0.628-0.059-1.21-0.352-1.631-0.822c-0.785-0.876-1.848-2.964-0.858-5.233c1.11-2.545,4.704-5.967,23.01-6.294
		c0.19-0.002,0.393,0.017,0.585,0.059c0.895,0.199,21.943,4.982,32.257,17.385c1.962,1.736,17.879,16.524,19.198,40.361
		c0.076,1.378-0.979,2.558-2.358,2.634c-1.367,0.084-2.558-0.979-2.634-2.358c-1.255-22.67-17.467-36.849-17.63-36.99
		c-0.11-0.095-0.215-0.201-0.307-0.314c-8.593-10.486-26.867-15.179-29.332-15.772c-12.5,0.25-16.481,1.955-17.698,2.807
		c8.916,2.589,27.59,15.106,29.864,16.644c0.073,0.05,0.145,0.104,0.212,0.161c20.4,17.223,16.436,32.057,15.796,34.007
		c-1.41,6.188-4.454,10.742-9.048,13.535C126.233,145.375,121.839,146.005,118.327,146.005z"/>
</g>
<g>
	<path fill="#dd7f0f" d="M175.578,109.562c-10.428,0-24.667-9.472-26.655-10.831c-1.14-0.779-1.432-2.334-0.653-3.474
		c0.778-1.14,2.333-1.433,3.474-0.655c7.022,4.793,23.076,13.237,27.881,8.739c0.133-0.124,0.279-0.234,0.436-0.326
		c0.635-0.389,6.233-4.089,3.621-11.902c-0.679-1.429-5.551-11.993-5.699-21.343c-0.022-1.38,1.08-2.518,2.46-2.539
		c1.416-0.01,2.518,1.08,2.539,2.46c0.138,8.716,5.216,19.278,5.267,19.384c0.044,0.09,0.083,0.184,0.115,0.278
		c3.22,9.355-2.081,15.65-5.526,17.823C180.899,108.88,178.375,109.562,175.578,109.562z"/>
</g>
<g>
	<path fill="#dd7f0f" d="M215.668,84.054c-0.205,0-0.414-0.025-0.622-0.079c-18.27-4.676-31.404-0.116-31.534-0.069
		c-1.296,0.463-2.729-0.21-3.196-1.508c-0.466-1.297,0.203-2.726,1.499-3.195c0.588-0.212,14.618-5.149,34.471-0.071
		c1.337,0.342,2.145,1.704,1.802,3.042C217.799,83.303,216.783,84.054,215.668,84.054z"/>
</g>
<g>
	<ellipse fill="#dd7f0f" cx="200.228" cy="70.852" rx="4.062" ry="8.546"/>
	<path fill="#dd7f0f" d="M200.228,81.898c-3.802,0-6.562-4.646-6.562-11.046s2.76-11.046,6.562-11.046s6.562,4.646,6.562,11.046
		S204.03,81.898,200.228,81.898z M200.228,64.91c-0.572,0.573-1.562,2.625-1.562,5.942c0,3.318,0.99,5.369,1.562,5.942
		c0.571-0.573,1.562-2.624,1.562-5.942C201.79,67.534,200.8,65.483,200.228,64.91z"/>
</g>
<g>
	<ellipse fill="#dd7f0f" cx="199.958" cy="90.167" rx="2.792" ry="9.167"/>
	<path fill="#dd7f0f" d="M199.958,101.833c-3.901,0-5.291-6.026-5.291-11.667s1.39-11.667,5.291-11.667
		c3.901,0,5.292,6.027,5.292,11.667S203.859,101.833,199.958,101.833z M199.958,86.288c-0.172,1.067-0.291,2.374-0.291,3.879
		s0.119,2.812,0.291,3.879c0.173-1.067,0.292-2.373,0.292-3.879S200.13,87.355,199.958,86.288z"/>
</g>
<g>
	<path fill="#dd7f0f" d="M201.667,501.896c0,0-0.215,6.104,4.393,11.854"/>
	<path fill="#dd7f0f" d="M206.06,514.75c-0.293,0-0.584-0.128-0.781-0.375c-4.784-5.971-4.621-12.447-4.611-12.713
		c0.019-0.539,0.462-1.162,0.998-1.162c0.013,0,0.024,0,0.036,0c0.551,0,0.982,0.68,0.964,1.23l0,0
		c-0.001,0.058-0.128,5.926,4.174,11.295c0.346,0.432,0.276,1.109-0.155,1.455C206.5,514.628,206.279,514.75,206.06,514.75z"/>
</g>
<g>
	<path fill="#dd7f0f" d="M195.417,502.75c0,0,3.25,9,1.375,15.25"/>
	<path fill="#dd7f0f" d="M196.792,519c-0.095,0-0.192-0.014-0.288-0.042c-0.529-0.159-0.83-0.717-0.671-1.245
		c1.757-5.855-1.326-14.536-1.358-14.624c-0.187-0.519,0.083-1.092,0.602-1.279c0.521-0.187,1.093,0.082,1.28,0.601
		c0.137,0.38,3.34,9.386,1.393,15.877C197.62,518.721,197.222,519,196.792,519z"/>
</g>
<g>
	<path fill="#dd7f0f" d="M193.292,502.75c0,0-1.25,7-3.625,9.75"/>
	<path fill="#dd7f0f" d="M189.666,513.5c-0.231,0-0.464-0.08-0.653-0.243c-0.418-0.361-0.464-0.992-0.103-1.41
		c2.167-2.51,3.385-9.205,3.397-9.272c0.097-0.544,0.611-0.907,1.16-0.809c0.544,0.098,0.906,0.616,0.809,1.16
		c-0.053,0.297-1.327,7.304-3.853,10.228C190.226,513.383,189.947,513.5,189.666,513.5z"/>
</g>
<g>
	<path fill="#dd7f0f" d="M205.659,425.75c-0.965,0-1.855-0.559-2.268-1.45c-6.547-14.143-18.597-37.626-23.057-40.435
		c-0.24-0.151-0.453-0.342-0.629-0.564c-1.31-1.657-32.105-40.617-34.13-43.668c-0.812-1.261-19.417-30.537-18.658-61.943
		c-0.011-0.795-0.07-21.831,16.61-41.077c0.088-0.102,0.185-0.197,0.289-0.284c0.428-0.356,10.621-8.719,24.171-8.719
		c9.223,0,17.656,3.831,25.086,11.39l17.069-2.598c2.699-2.599,13.58-11.868,30.84-11.402c0.945,0.025,23.323,0.836,39.116,20.081
		c0.038,0.046,0.074,0.094,0.109,0.143c0.529,0.75,12.851,18.72,2.589,50.788c-0.114,0.358-11.685,36.176-31.116,64.647
		c-0.813,1.136-19.032,26.505-23.082,30.933c-7.521,10.285-19.664,28.005-20.487,32.146c-0.211,1.062-1.082,1.867-2.156,1.995
		C205.856,425.744,205.757,425.75,205.659,425.75z M183.397,379.908c5.966,4.423,16.986,26.442,22.182,37.306
		c5.052-9.388,16.381-25.017,19.069-28.69c0.06-0.082,0.125-0.159,0.193-0.233c2.878-3.069,16.136-21.292,22.743-30.498
		c18.991-27.828,30.337-62.952,30.45-63.303c9.163-28.637-1.134-45.191-1.875-46.326c-14.357-17.411-35.103-18.159-35.311-18.165
		c-17.411-0.448-27.58,10.339-27.679,10.446c-0.385,0.417-0.9,0.691-1.462,0.777l-19.167,2.917
		c-0.817,0.126-1.641-0.163-2.204-0.766c-6.667-7.142-14.188-10.763-22.352-10.763c-10.897,0-19.615,6.499-20.83,7.449
		c-15.302,17.782-15.244,37.464-15.241,37.661c-0.724,29.977,17.658,58.889,17.843,59.177
		C151.314,339.237,174.344,368.454,183.397,379.908z"/>
</g>
<g>
	<path fill="#dd7f0f" d="M209.167,401.5c-0.794,0-1.515-0.471-1.833-1.201c-0.087-0.197-8.714-19.835-18.552-29.272
		c-0.039-0.037-0.076-0.076-0.112-0.117c-1.063-1.198-25.937-29.286-29.445-35.339c-1.115-1.61-14.841-21.772-19.766-45.413
		c-0.016-0.078-0.028-0.156-0.035-0.235c-0.074-0.856-1.707-21.108,7.333-34.539c0.384-0.55,9.04-12.808,18.649-15.151
		c0.293-0.081,1.2-0.294,2.636-0.294c3.803,0,11.544,1.52,21.177,11.546l23.9-1.683c2.804-2.347,15.991-12.753,27.917-12.048
		c0.039,0.002,0.079,0.006,0.118,0.011c0.573,0.069,14.063,1.823,23.218,14.382c2.395,1.952,17.983,16.476,4.17,53.798
		c-0.025,0.069-0.055,0.136-0.088,0.202c-0.16,0.318-16.002,31.926-18.204,36.985c-0.053,0.119-0.116,0.233-0.19,0.341
		c-0.842,1.213-20.437,29.453-23.819,33.269c-5.465,7.961-14.362,21.28-15.207,23.478c-0.292,0.758-1.012,1.281-1.823,1.281
		C209.196,401.5,209.181,401.5,209.167,401.5z M191.61,368.196c7.836,7.551,14.673,20.585,17.717,26.897
		c4.041-6.648,12.516-19.016,13.69-20.726c0.054-0.079,0.114-0.154,0.179-0.225c2.369-2.566,17.633-24.384,23.467-32.792
		c2.463-5.557,17.022-34.618,18.165-36.899c13.414-36.342-2.424-48.789-3.104-49.301c-0.162-0.122-0.314-0.275-0.433-0.44
		c-7.837-10.93-19.691-12.842-20.567-12.969c-11.573-0.646-25.353,11.392-25.487,11.51c-0.328,0.289-0.743,0.462-1.18,0.493
		l-25.5,1.796c-0.614,0.041-1.192-0.19-1.603-0.631c-8.906-9.547-15.671-10.972-18.912-10.972c-1.009,0-1.564,0.148-1.57,0.149
		c-8.236,1.985-16.336,13.443-16.417,13.559c-7.917,11.762-6.772,30.215-6.655,31.821c4.885,23.277,19.013,43.684,19.155,43.888
		c0.037,0.052,0.071,0.106,0.102,0.161C165.232,338.07,184.376,360.034,191.61,368.196z"/>
</g>
<g>
	<path fill="#dd7f0f" d="M203.36,332.112c-0.046,0-0.092-0.001-0.139-0.004c-3.162-0.152-6.903-6.259-8.364-8.877
		c-0.1-0.179-0.163-0.377-0.183-0.582c-0.362-3.619-3.942-16.35-5.714-22.504c-14.386,23.389-35.824,20.981-36.052,20.952
		c-0.822-0.104-1.404-0.854-1.3-1.677c0.104-0.821,0.859-1.399,1.673-1.3l0,0c0.873,0.108,21.501,2.322,34.813-22.488
		c0.288-0.536,0.872-0.846,1.476-0.783c0.605,0.063,1.112,0.484,1.285,1.067c0.252,0.852,6.057,20.54,6.767,26.111
		c1.979,3.476,4.538,6.685,5.61,7.053c0.275-0.33,0.697-0.561,1.122-0.579c0.011-0.003,5.146-0.642,9.631-12.706
		c0.25-0.951,3.126-12.123,2.438-19.312c-0.064-0.678,0.335-1.314,0.974-1.55c0.637-0.235,1.355-0.012,1.747,0.545
		c0.062,0.087,6.192,8.781,11.697,13.089c0.067,0.045,12.541,8.621,31.812,2.355c0.791-0.258,1.635,0.175,1.891,0.962
		c0.256,0.788-0.175,1.634-0.963,1.89c-20.781,6.759-33.982-2.412-34.535-2.805c-3.533-2.764-7.163-7.009-9.568-10.057
		c-0.364,7.295-2.501,15.315-2.612,15.726c-0.012,0.044-0.025,0.088-0.042,0.131c-4.403,11.889-9.692,14.183-11.641,14.625
		C204.673,331.863,204.046,332.112,203.36,332.112z"/>
</g>
<g>
	<path fill="#dd7f0f" d="M204.874,342.075c-5.95,0.001-12.238-9.513-12.969-10.652c-2.975-4.75-5.758-11.691-7.089-15.223
		c-4.042,4.063-11.245,11.399-11.329,11.484c-0.03,0.031-0.063,0.061-0.096,0.089c-4.678,4-14.925,1.94-16.078,1.692
		c-0.81-0.174-1.325-0.971-1.151-1.781c0.174-0.81,0.975-1.321,1.781-1.152c2.717,0.582,10.404,1.53,13.452-1
		c0.758-0.771,9.864-10.042,12.964-13.121c0.365-0.363,0.892-0.513,1.394-0.397c0.502,0.116,0.91,0.481,1.079,0.967
		c0.037,0.106,3.743,10.666,7.605,16.834c2.485,3.867,7.646,9.794,10.954,9.208c0.43-0.055,8.398-1.125,13.189-10.47
		c0.006-0.017,3.642-8.044,4.352-12.777c0.091-0.605,0.541-1.094,1.136-1.236c0.6-0.141,1.218,0.093,1.572,0.592
		c0.056,0.08,5.706,7.968,11.235,8.749c7.956,0.704,17.432,0.777,18.956-0.234c0.408-0.632,1.235-0.871,1.925-0.528
		c0.742,0.368,1.046,1.268,0.678,2.01c-1.158,2.337-8.524,2.919-21.901,1.732c-4.615-0.65-8.918-4.75-11.334-7.497
		c-1.332,4.788-3.791,10.216-3.918,10.496c-5.583,10.893-15.053,12.085-15.453,12.13
		C205.512,342.048,205.193,342.075,204.874,342.075z"/>
</g>
<g>
	<path fill="#dd7f0f" d="M240.167,255.75c-2.619,0-4.75-1.851-4.75-4.125s2.131-4.125,4.75-4.125s4.75,1.851,4.75,4.125
		S242.786,255.75,240.167,255.75z M240.167,249.5c-1.517,0-2.75,0.953-2.75,2.125s1.233,2.125,2.75,2.125s2.75-0.953,2.75-2.125
		S241.683,249.5,240.167,249.5z"/>
</g>
<g>
	<ellipse fill="#dd7f0f" cx="247.892" cy="251.625" rx="2.475" ry="3.125"/>
	<path fill="#dd7f0f" d="M247.892,255.75c-1.916,0-3.476-1.851-3.476-4.125s1.56-4.125,3.476-4.125s3.475,1.851,3.475,4.125
		S249.808,255.75,247.892,255.75z M247.892,249.5c-0.8,0-1.476,0.973-1.476,2.125s0.676,2.125,1.476,2.125s1.475-0.973,1.475-2.125
		S248.692,249.5,247.892,249.5z"/>
</g>
<g>
	<ellipse fill="#dd7f0f" cx="248.29" cy="257.023" rx="4.373" ry="3.477"/>
	<path fill="#dd7f0f" d="M248.29,261.5c-2.963,0-5.373-2.008-5.373-4.477s2.41-4.477,5.373-4.477s5.373,2.008,5.373,4.477
		S251.252,261.5,248.29,261.5z M248.29,254.546c-1.828,0-3.373,1.134-3.373,2.477s1.545,2.477,3.373,2.477s3.373-1.134,3.373-2.477
		S250.118,254.546,248.29,254.546z"/>
</g>
<g>
	<ellipse fill="#dd7f0f" cx="242.042" cy="260.387" rx="3.375" ry="4.363"/>
	<path fill="#dd7f0f" d="M242.042,265.75c-2.412,0-4.375-2.406-4.375-5.363s1.963-5.364,4.375-5.364s4.375,2.406,4.375,5.364
		S244.454,265.75,242.042,265.75z M242.042,257.023c-1.287,0-2.375,1.541-2.375,3.364s1.088,3.363,2.375,3.363
		s2.375-1.54,2.375-3.363S243.329,257.023,242.042,257.023z"/>
</g>
<g>
	<ellipse fill="#dd7f0f" cx="236.917" cy="259.25" rx="3" ry="4.25"/>
	<path fill="#dd7f0f" d="M236.917,264.5c-2.243,0-4-2.306-4-5.25s1.757-5.25,4-5.25s4,2.306,4,5.25S239.16,264.5,236.917,264.5z
		 M236.917,256c-1.065,0-2,1.519-2,3.25s0.935,3.25,2,3.25s2-1.519,2-3.25S237.982,256,236.917,256z"/>
</g>
<g>
	<ellipse fill="#dd7f0f" cx="231.417" cy="258.887" rx="2.5" ry="3.113"/>
	<path fill="#dd7f0f" d="M231.417,263c-1.93,0-3.5-1.845-3.5-4.113c0-2.269,1.57-4.114,3.5-4.114s3.5,1.845,3.5,4.114
		C234.917,261.155,233.346,263,231.417,263z M231.417,256.773c-0.813,0-1.5,0.968-1.5,2.114c0,1.146,0.687,2.113,1.5,2.113
		s1.5-0.968,1.5-2.113C232.917,257.741,232.23,256.773,231.417,256.773z"/>
</g>
<g>
	<ellipse fill="#dd7f0f" cx="232.056" cy="252.762" rx="3.139" ry="3.011"/>
	<path fill="#dd7f0f" d="M232.055,256.773c-2.282,0-4.139-1.799-4.139-4.011s1.856-4.012,4.139-4.012s4.14,1.8,4.14,4.012
		S234.337,256.773,232.055,256.773z M232.055,250.75c-1.18,0-2.139,0.902-2.139,2.012c0,1.109,0.959,2.011,2.139,2.011
		s2.14-0.902,2.14-2.011C234.195,251.652,233.235,250.75,232.055,250.75z"/>
</g>
<g>
	<ellipse fill="#dd7f0f" cx="234.833" cy="247.542" rx="1.583" ry="2.542"/>
	<path fill="#dd7f0f" d="M234.833,251.083c-1.448,0-2.583-1.556-2.583-3.542c0-1.986,1.135-3.542,2.583-3.542
		s2.583,1.556,2.583,3.542C237.417,249.528,236.282,251.083,234.833,251.083z M234.833,246c-0.111,0-0.583,0.514-0.583,1.542
		s0.472,1.542,0.583,1.542s0.583-0.514,0.583-1.542S234.945,246,234.833,246z"/>
</g>
<g>
	<ellipse fill="#dd7f0f" cx="239.667" cy="245.042" rx="1.834" ry="2.5"/>
	<path fill="#dd7f0f" d="M239.667,248.542c-1.589,0-2.834-1.538-2.834-3.5s1.245-3.5,2.834-3.5s2.834,1.538,2.834,3.5
		S241.255,248.542,239.667,248.542z M239.667,243.542c-0.386,0-0.834,0.655-0.834,1.5s0.448,1.5,0.834,1.5s0.834-0.655,0.834-1.5
		S240.052,243.542,239.667,243.542z"/>
</g>
<g>
	<ellipse fill="#dd7f0f" cx="243.583" cy="246.292" rx="1.333" ry="3.042"/>
	<path fill="#dd7f0f" d="M243.583,250.333c-1.374,0-2.333-1.662-2.333-4.042s0.959-4.042,2.333-4.042s2.333,1.662,2.333,4.042
		S244.958,250.333,243.583,250.333z M243.583,244.48c-0.162,0.347-0.333,0.979-0.333,1.812s0.171,1.465,0.333,1.812
		c0.162-0.347,0.333-0.979,0.333-1.812S243.746,244.827,243.583,244.48z"/>
</g>
<g>
	<ellipse fill="#dd7f0f" cx="244.792" cy="254.72" rx="2.208" ry="2.303"/>
	<path fill="#dd7f0f" d="M244.792,258.023c-1.769,0-3.208-1.482-3.208-3.303s1.439-3.303,3.208-3.303
		c1.77,0,3.209,1.481,3.209,3.303S246.561,258.023,244.792,258.023z M244.792,253.417c-0.666,0-1.208,0.584-1.208,1.303
		c0,0.719,0.542,1.303,1.208,1.303c0.667,0,1.209-0.584,1.209-1.303C246,254.001,245.458,253.417,244.792,253.417z"/>
</g>
<g>
	<ellipse fill="#dd7f0f" cx="235.708" cy="254.659" rx="1.208" ry="1.114"/>
	<path fill="#dd7f0f" d="M235.708,256.773c-1.218,0-2.208-0.948-2.208-2.114c0-1.165,0.99-2.113,2.208-2.113
		s2.208,0.948,2.208,2.113C237.917,255.825,236.926,256.773,235.708,256.773z M235.708,254.546c-0.135,0-0.208,0.081-0.208,0.113
		c0,0.033,0.073,0.114,0.208,0.114s0.208-0.081,0.208-0.114C235.917,254.626,235.843,254.546,235.708,254.546z"/>
</g>
<g>
	<ellipse fill="#dd7f0f" cx="237.75" cy="248.021" rx="1.333" ry="0.479"/>
	<path fill="#dd7f0f" d="M237.75,249.5c-1.418,0-2.334-0.581-2.334-1.479s0.916-1.479,2.334-1.479c1.417,0,2.333,0.581,2.333,1.479
		S239.167,249.5,237.75,249.5z"/>
</g>
<g>
	<ellipse fill="#dd7f0f" cx="163.667" cy="250.776" rx="2.667" ry="3.883"/>
	<path fill="#dd7f0f" d="M163.667,255.659c-2.056,0-3.667-2.145-3.667-4.883c0-2.739,1.61-4.884,3.667-4.884
		s3.667,2.145,3.667,4.884C167.333,253.514,165.723,255.659,163.667,255.659z M163.667,247.892c-0.788,0-1.667,1.185-1.667,2.884
		s0.878,2.883,1.667,2.883c0.789,0,1.667-1.184,1.667-2.883S164.455,247.892,163.667,247.892z"/>
</g>
<g>
	<ellipse fill="#dd7f0f" cx="170.167" cy="249.182" rx="1.833" ry="3.235"/>
	<path fill="#dd7f0f" d="M170.167,253.417c-1.615,0-2.833-1.821-2.833-4.235s1.218-4.235,2.833-4.235s2.833,1.821,2.833,4.235
		S171.782,253.417,170.167,253.417z M170.167,246.947c-0.208,0-0.833,0.792-0.833,2.235s0.625,2.235,0.833,2.235
		s0.833-0.792,0.833-2.235S170.374,246.947,170.167,246.947z"/>
</g>
<g>
	<ellipse fill="#dd7f0f" cx="174.083" cy="251.854" rx="1.417" ry="2.229"/>
	<path fill="#dd7f0f" d="M174.083,255.083c-1.355,0-2.417-1.418-2.417-3.229c0-1.811,1.062-3.229,2.417-3.229
		s2.417,1.418,2.417,3.229C176.5,253.665,175.438,255.083,174.083,255.083z M174.062,250.622c-0.082,0.046-0.395,0.48-0.395,1.232
		c0,0.711,0.281,1.138,0.417,1.221c0.136-0.083,0.417-0.51,0.417-1.221C174.5,251.103,174.187,250.668,174.062,250.622z"/>
</g>
<g>
	<ellipse fill="#dd7f0f" cx="158.125" cy="256.118" rx="4.208" ry="2.769"/>
	<path fill="#dd7f0f" d="M158.125,259.887c-2.92,0-5.208-1.656-5.208-3.769s2.288-3.769,5.208-3.769s5.208,1.656,5.208,3.769
		S161.045,259.887,158.125,259.887z M158.125,254.349c-1.891,0-3.208,0.932-3.208,1.769s1.318,1.769,3.208,1.769
		s3.208-0.932,3.208-1.769S160.016,254.349,158.125,254.349z"/>
</g>
<g>
	<ellipse fill="#dd7f0f" cx="156.938" cy="262.875" rx="2.146" ry="2.792"/>
	<path fill="#dd7f0f" d="M156.938,266.667c-1.735,0-3.146-1.701-3.146-3.792s1.411-3.792,3.146-3.792s3.146,1.701,3.146,3.792
		S158.672,266.667,156.938,266.667z M156.938,261.083c-0.542,0-1.146,0.736-1.146,1.792c0,1.056,0.604,1.792,1.146,1.792
		s1.146-0.736,1.146-1.792C158.083,261.819,157.479,261.083,156.938,261.083z"/>
</g>
<g>
	<ellipse fill="#dd7f0f" cx="162.708" cy="264.443" rx="2.708" ry="5.974"/>
	<path fill="#dd7f0f" d="M162.708,271.417c-2.435,0-3.708-3.508-3.708-6.974s1.274-6.974,3.708-6.974s3.708,3.508,3.708,6.974
		S165.143,271.417,162.708,271.417z M162.708,259.47c-0.603,0-1.708,1.888-1.708,4.974s1.106,4.974,1.708,4.974
		c0.602,0,1.708-1.888,1.708-4.974S163.311,259.47,162.708,259.47z"/>
</g>
<g>
	<ellipse fill="#dd7f0f" cx="158.854" cy="260.11" rx="0.729" ry="1.223"/>
	<path fill="#dd7f0f" d="M158.854,262.333c-0.986,0-1.729-0.956-1.729-2.223s0.743-2.224,1.729-2.224s1.729,0.956,1.729,2.224
		S159.84,262.333,158.854,262.333z"/>
</g>
<g>
	<ellipse fill="#dd7f0f" cx="159.729" cy="260.146" rx="1.604" ry="2.729"/>
	<path fill="#dd7f0f" d="M159.729,263.875c-1.484,0-2.604-1.603-2.604-3.729s1.12-3.729,2.604-3.729
		c1.485,0,2.604,1.603,2.604,3.729S161.214,263.875,159.729,263.875z M159.722,258.417c-0.133,0.037-0.597,0.628-0.597,1.729
		c0,1.083,0.449,1.673,0.604,1.728c0.155-0.054,0.604-0.643,0.604-1.728C160.333,259.044,159.869,258.453,159.722,258.417z"/>
</g>
<g>
	<ellipse fill="#dd7f0f" cx="169.583" cy="262.875" rx="4.5" ry="4.542"/>
	<path fill="#dd7f0f" d="M169.583,268.417c-3.033,0-5.5-2.486-5.5-5.542s2.467-5.542,5.5-5.542c3.033,0,5.5,2.486,5.5,5.542
		S172.616,268.417,169.583,268.417z M169.583,259.333c-1.93,0-3.5,1.589-3.5,3.542s1.57,3.542,3.5,3.542c1.93,0,3.5-1.589,3.5-3.542
		S171.513,259.333,169.583,259.333z"/>
</g>
<g>
	<ellipse fill="#dd7f0f" cx="171.792" cy="255.758" rx="2.292" ry="3.128"/>
	<path fill="#dd7f0f" d="M171.792,259.887c-1.846,0-3.292-1.813-3.292-4.128s1.446-4.128,3.292-4.128s3.292,1.813,3.292,4.128
		S173.638,259.887,171.792,259.887z M171.792,253.63c-0.611,0-1.292,0.874-1.292,2.128s0.681,2.128,1.292,2.128
		s1.292-0.874,1.292-2.128S172.403,253.63,171.792,253.63z"/>
</g>
<g>
	<ellipse fill="#dd7f0f" cx="167.685" cy="251.585" rx="1.481" ry="1.96"/>
	<path fill="#dd7f0f" d="M167.685,254.546c-1.392,0-2.481-1.3-2.481-2.96s1.09-2.96,2.481-2.96s2.481,1.3,2.481,2.96
		S169.077,254.546,167.685,254.546z M167.685,250.625c-0.17,0-0.481,0.365-0.481,0.96s0.312,0.96,0.481,0.96s0.481-0.365,0.481-0.96
		S167.855,250.625,167.685,250.625z"/>
</g>
<g>
	<ellipse fill="#dd7f0f" cx="175.208" cy="261.208" rx="1.708" ry="2.875"/>
	<path fill="#dd7f0f" d="M175.208,265.083c-1.544,0-2.708-1.666-2.708-3.875c0-2.209,1.165-3.875,2.708-3.875
		s2.708,1.666,2.708,3.875C177.917,263.417,176.752,265.083,175.208,265.083z M175.208,259.333c-0.176,0-0.708,0.665-0.708,1.875
		c0,1.21,0.532,1.875,0.708,1.875s0.708-0.665,0.708-1.875C175.917,259.998,175.385,259.333,175.208,259.333z"/>
</g>
<g>
	<path fill="#dd7f0f" d="M194.667,254.083c0,0-3.75,11.167-12,19.167c0,0-7.333,12.272-7.167,19.011c0,0-0.667,6.989,0,9.989
		c0,0,6.917-1.75,13.917-15c0,0,6.25-16.916,6.75-19.833c0,0,2.5-9.349,2.25-12.758"/>
	<path fill="#dd7f0f" d="M175.5,303.25c-0.184,0-0.365-0.051-0.524-0.148c-0.23-0.142-0.393-0.371-0.452-0.635
		c-0.667-3.003-0.093-9.504-0.025-10.242c-0.128-6.958,7.004-18.979,7.309-19.488c0.045-0.075,0.1-0.144,0.162-0.205
		c7.971-7.729,11.711-18.658,11.749-18.768c0.175-0.523,0.74-0.808,1.267-0.629c0.523,0.176,0.805,0.743,0.629,1.266
		c-0.155,0.463-3.894,11.404-12.154,19.471c-0.719,1.228-7.109,12.32-6.96,18.363c0.001,0.04,0,0.08-0.004,0.12
		c-0.006,0.06-0.497,5.301-0.196,8.484c2.114-1.061,7.129-4.422,12.202-13.999c2.157-5.841,6.298-17.366,6.679-19.593
		c0.044-0.181,2.473-9.313,2.239-12.516c-0.041-0.551,0.373-1.03,0.924-1.071c0.565-0.031,1.03,0.374,1.07,0.924
		c0.26,3.537-2.177,12.701-2.281,13.089c-0.49,2.884-6.521,19.227-6.778,19.921c-0.015,0.041-0.033,0.082-0.054,0.121
		c-7.126,13.488-14.255,15.426-14.556,15.502C175.665,303.24,175.582,303.25,175.5,303.25z"/>
</g>
<g>
	<path fill="#dd7f0f" d="M199.333,257.023c0,0,1.034,16.811-0.899,19.644c0,0-3.768,15.333-3.101,18.833
		c0,0,1.72,12.334,4.277,15.667c0,0,2.39,5.833,5.057,4.167c0,0,4.5-2.417,6-14.958c0,0,2.167-14.208-1.333-23.042
		c0,0-4.667-12.083-5.167-14.458c0,0-1.959-6.137-2-8.216"/>
	<path fill="#dd7f0f" d="M203.695,316.634c-0.291,0-0.587-0.046-0.883-0.142c-2.203-0.71-3.746-4.053-4.077-4.826
		c-2.639-3.637-4.321-15.52-4.392-16.028c-0.68-3.561,2.729-17.619,3.121-19.21c0.028-0.116,0.077-0.226,0.145-0.325
		c1.269-1.857,1.119-12.651,0.728-19.019c-0.034-0.551,0.386-1.026,0.937-1.06c0.572-0.032,1.026,0.386,1.06,0.937
		c0.173,2.812,0.925,16.78-0.964,20.096c-1.056,4.324-3.56,15.593-3.052,18.256c0.477,3.407,2.124,12.684,4.087,15.246
		c0.054,0.07,0.099,0.147,0.132,0.229c0.445,1.08,1.736,3.431,2.892,3.802c0.251,0.08,0.464,0.049,0.71-0.104
		c0.083-0.048,4.139-2.538,5.537-14.229c0.025-0.171,2.089-14.079-1.27-22.555c-0.193-0.501-4.643-12.032-5.204-14.568
		c-0.265-0.83-1.991-6.417-2.033-8.534c-0.011-0.552,0.428-1.099,0.98-1.099c0.007,0,0.014,0,0.02,0c0.544,0,0.989,0.514,1,1.06
		c0.031,1.584,1.42,6.302,1.953,7.971c0.01,0.032,0.019,0.084,0.025,0.118c0.383,1.816,3.518,10.161,5.121,14.314
		c3.556,8.974,1.479,22.966,1.389,23.558c-1.539,12.877-6.313,15.583-6.515,15.691C204.701,316.488,204.207,316.634,203.695,316.634
		z"/>
</g>
<g>
	<path fill="#dd7f0f" d="M207.36,254.083c0,0,6.808,27.917,7.974,29.917c0,0,8,11.683,9.333,12.341c0,0,12.667,6.159,11.75,2.826
		c0,0-0.251-10.167-9.917-24.5c0,0-16.5-19.833-17.333-20.583"/>
	<path fill="#dd7f0f" d="M235.403,301.114c-2.592,0-7.294-1.987-11.174-3.874c-1.42-0.702-7.271-9.098-9.721-12.676
		c-1.243-2.127-7.42-27.373-8.12-30.245c-0.131-0.537,0.198-1.078,0.734-1.208c0.479-0.115,0.951,0.128,1.146,0.556
		c0.043-0.092,0.1-0.179,0.172-0.257c0.372-0.401,0.989-0.437,1.395-0.07c0.844,0.76,14.67,17.366,17.433,20.687
		c0.021,0.026,0.042,0.053,0.061,0.081c9.285,13.769,10.026,23.691,10.083,24.92c0.212,0.958-0.279,1.492-0.508,1.682
		C236.566,300.99,236.049,301.114,235.403,301.114z M208.596,254.93c2.642,10.79,6.829,27.237,7.602,28.567
		c3.702,5.401,8.086,11.395,8.946,11.967c4.416,2.145,8.905,3.727,10.271,3.708c-0.022-0.522-0.592-10.355-9.717-23.905
		C219.38,267.673,209.876,256.308,208.596,254.93z"/>
</g>
<g>
	<ellipse fill="#dd7f0f" cx="200.76" cy="254.832" rx="1.593" ry="1.286"/>
	<path fill="#dd7f0f" d="M200.76,257.118c-1.431,0-2.594-1.025-2.594-2.286c0-1.26,1.163-2.286,2.594-2.286
		c1.43,0,2.593,1.025,2.593,2.286C203.353,256.092,202.19,257.118,200.76,257.118z M200.76,254.546c-0.39,0-0.594,0.212-0.594,0.286
		c0,0.074,0.204,0.286,0.594,0.286c0.369,0,0.593-0.199,0.593-0.286C201.353,254.758,201.149,254.546,200.76,254.546z"/>
</g>
</svg>
