<?xml version="1.0" encoding="utf-8"?>
<!-- Generator: Adobe Illustrator 16.0.0, SVG Export Plug-In . SVG Version: 6.00 Build 0)  -->
<!DOCTYPE svg PUBLIC "-//W3C//DTD SVG 1.1//EN" "http://www.w3.org/Graphics/SVG/1.1/DTD/svg11.dtd">
<svg version="1.1" id="Warstwa_2" xmlns="http://www.w3.org/2000/svg" xmlns:xlink="http://www.w3.org/1999/xlink" x="0px" y="0px"
	 width="85px" height="105.25px" viewBox="0 0 85 105.25" enable-background="new 0 0 85 105.25" xml:space="preserve">
<g>
	<g>
		<path fill="#dd7f0f" stroke="#dd7f0f" stroke-miterlimit="10" d="M1.263,54.437l0.152-0.218
			c4.856-6.939,9.24-10.875,10.611-11.941c-1.733-2.813-2.321-5.359-2.777-9.573c0-0.001,0.021-0.979,0.021-0.979
			c0-4.819,1.422-8.591,1.435-8.63c1.682-5.146,8.446-7.55,11.2-8.345c2.237-0.646,4.663-0.878,6.924-1.103
			c2.636-0.262,5.405-0.532,7.927-1.466c3.09-1.144,6.17-3.407,8.865-6.545l0.117-0.059C48.179,2.779,48.376,2,48.376,2h0.002
			c0,0,0.002-0.05,0.014-0.03l0.561-0.33c2.853,5.349,4.3,11.641,4.3,18.731c0,2.146-0.135,4.363-0.401,6.609
			c0.68,0.166,1.228,0.336,1.633,0.515c0.527,0.103,5.523,1.175,10.443,5.788c2.044,1.917,3.492,4.459,4.894,6.918
			c0.95,1.669,1.934,3.394,3.078,4.866c0.055,0.07,5.546,7.044,10.259,7.5l-0.016,0.633c-0.067,0.004-6.913,0.483-13.712,12.227
			c-0.48,0.83-0.95,1.698-1.403,2.539c-1.482,2.744-3.015,5.582-5.309,7.804c-1.959,1.897-4.509,3.19-8.005,4.058l0.226,0.862
			c0.299,1.142,0.502,2.343,0.603,3.569c0.056,0.667,0.083,1.358,0.083,2.055c0,3.893-0.847,7.705-1.763,11.244
			c-0.055,0.214-0.267,0.749-0.637,1.675c-0.584,1.464-1.563,3.914-1.562,4.484c0,0.021-0.004-0.008-0.027-0.043l0,0l-0.528,0.353
			v-0.001c-1.723-2.584-4.017-4.814-6.632-6.451c-4.367-2.731-9.517-3.61-14.497-4.46c-5.239-0.895-10.656-1.818-15.3-4.877
			c-4.139-2.725-5.007-6.43-5.007-9.059c0-1.286,0.214-2.187,0.262-2.372c0.347-5.436,2.253-10.104,3.45-12.553
			c-6.021-3.705-11.875-9.57-11.935-9.63L1.263,54.437z M12.727,42.813c-1.387,1.084-5.933,4.886-10.638,11.552
			c1.044,1.024,6.245,6.027,11.581,9.32c0.262-0.508,0.426-0.786,0.434-0.8l0.026-0.038c5.208-6.471,13.56-3.596,13.997-3.438
			c2.437,0.646,4.563,2.009,6.321,4.053c1.32-0.973,2.607-2.145,3.828-3.487c0.013-0.016,2.091-2.497,4.486-6.245
			c-2.21-3.357-4.343-6.103-6.518-8.387c-0.999-1.05-1.863-1.868-2.697-2.551c-7.268,9.648-16.229,4.386-16.318,4.331
			C15.403,45.98,13.891,44.532,12.727,42.813z M13.93,64.584c-1.005,2.073-3.023,6.841-3.364,12.295l-0.011,0.065
			c-0.002,0.009-0.248,0.912-0.248,2.235c0,2.473,0.819,5.959,4.722,8.528c4.532,2.984,9.883,3.897,15.058,4.78
			c5.041,0.86,10.253,1.75,14.727,4.549c2.458,1.538,4.641,3.587,6.351,5.956c0.249-0.903,0.818-2.359,1.472-3.995
			c0.29-0.727,0.564-1.413,0.612-1.598c0.904-3.499,1.742-7.265,1.742-11.086c0-0.679-0.027-1.354-0.081-2.003
			c-0.098-1.189-0.294-2.354-0.584-3.46l-0.229-0.877c-1.396,0.317-2.786,0.544-4.087,0.742c-3.301,0.503-6.847,0.596-10.257,0.269
			l-0.282-0.026l-0.005-0.283c-0.002-0.103-0.24-10.203-5.128-16.354C26.645,69.673,19.82,67.179,19.359,67
			C17.777,66.594,15.952,65.781,13.93,64.584z M48.762,2.622c-0.319,0.591-1.021,1.576-2.535,3.311L46.124,6.05
			c-2.766,3.22-5.914,5.547-9.104,6.728c-2.598,0.962-5.364,1.236-8.04,1.502c-2.232,0.223-4.541,0.452-6.722,1.081
			c-2.657,0.767-9.009,3.074-10.596,7.932c-0.013,0.038-1.258,3.908-1.258,8.622c0.014,3.924,0.838,7.286,2.492,9.991
			c9.692-5.948,18.374-1.415,18.461-1.368c0.689,0.37,1.368,0.813,2.066,1.346c0.864-1.224,1.677-2.642,2.418-4.218
			c0.021-0.057,2.999-8.083,3.466-11.97l0.035-0.295l0.297,0.016c0.082,0.005,8.083,0.452,12.588,1.415
			c0.259-2.197,0.39-4.374,0.39-6.475C52.617,13.685,51.32,7.724,48.762,2.622z M33.05,42.396c-0.676-0.517-1.33-0.943-1.993-1.3
			c-0.083-0.045-8.459-4.402-17.816,1.342c1.115,1.654,2.568,3.047,4.322,4.143C17.908,46.79,26.135,51.596,33.05,42.396z
			 M14.64,63.227c-0.042,0.072-0.198,0.347-0.425,0.788c1.993,1.184,3.782,1.982,5.321,2.375l0.044,0.015
			c0.067,0.027,6.74,2.692,14.349-2.573c-1.669-1.924-3.679-3.206-5.979-3.813l-0.03-0.01C27.838,59.978,19.671,57,14.64,63.227z
			 M39.898,26.067c-0.576,4.043-3.351,11.52-3.472,11.844c-0.771,1.645-1.61,3.105-2.504,4.366c0.863,0.704,1.755,1.546,2.782,2.626
			c2.149,2.258,4.255,4.956,6.43,8.236c2.213-3.538,5.011-8.728,6.341-14.08l0.011-0.035c0.019-0.048,1.8-4.844,2.663-11.561
			C48.191,26.607,41.39,26.158,39.898,26.067z M43.144,54.312c-2.354,3.651-4.369,6.056-4.39,6.081
			c-1.248,1.372-2.557,2.565-3.901,3.559c4.536,5.734,5.158,14.72,5.235,16.428c3.273,0.291,6.664,0.191,9.824-0.29
			c1.282-0.195,2.651-0.419,4.021-0.729c-1.163-4.416-2.359-8.718-4.063-12.801c-1.635-3.915-3.843-7.638-5.583-10.442
			C43.893,55.481,43.516,54.887,43.144,54.312z M50.088,39.229c-1.383,5.554-4.312,10.916-6.569,14.494l0,0l0,0
			c0.427,0.654,0.855,1.33,1.308,2.059c1.754,2.825,3.979,6.575,5.63,10.533c1.721,4.124,2.925,8.454,4.095,12.898
			c3.388-0.839,5.849-2.082,7.726-3.9c2.224-2.153,3.732-4.946,5.191-7.648c0.455-0.845,0.927-1.718,1.412-2.556
			c5.141-8.879,10.257-11.475,12.723-12.232c-4.525-1.477-8.997-7.151-9.205-7.419c-1.173-1.508-2.168-3.254-3.129-4.942
			c-1.378-2.418-2.803-4.919-4.776-6.771c-4.947-4.638-10.109-5.626-10.161-5.635l-0.073-0.023c-0.36-0.162-0.859-0.323-1.486-0.479
			C51.922,34.161,50.21,38.899,50.088,39.229z"/>
	</g>
</g>
</svg>
