<?xml version="1.0" encoding="utf-8"?>
<!-- Generator: Adobe Illustrator 16.0.0, SVG Export Plug-In . SVG Version: 6.00 Build 0)  -->
<!DOCTYPE svg PUBLIC "-//W3C//DTD SVG 1.1//EN" "http://www.w3.org/Graphics/SVG/1.1/DTD/svg11.dtd">
<svg version="1.1" id="Warstwa_2" xmlns="http://www.w3.org/2000/svg" xmlns:xlink="http://www.w3.org/1999/xlink" x="0px" y="0px"
	 width="85px" height="105.25px" viewBox="0 0 85 105.25" enable-background="new 0 0 85 105.25" xml:space="preserve">
<g>
	<g>
		<path fill="#dd7f0f" stroke="#dd7f0f" stroke-miterlimit="10" d="M82.971,54.625c-0.06,0.06-5.913,5.925-11.935,9.63
			c1.197,2.449,3.104,7.117,3.45,12.553c0.048,0.186,0.262,1.086,0.262,2.372c0,2.629-0.868,6.334-5.007,9.059
			c-4.644,3.059-10.061,3.982-15.3,4.877c-4.98,0.85-10.13,1.729-14.497,4.46c-2.615,1.637-4.909,3.867-6.632,6.451v0.001
			l-0.528-0.353l0,0c-0.023,0.035-0.027,0.064-0.027,0.043c0.001-0.57-0.978-3.021-1.562-4.484c-0.37-0.926-0.582-1.461-0.637-1.675
			c-0.916-3.539-1.763-7.352-1.763-11.244c0-0.696,0.027-1.388,0.083-2.055c0.101-1.227,0.304-2.428,0.603-3.569l0.226-0.862
			c-3.496-0.867-6.046-2.16-8.005-4.058c-2.294-2.222-3.826-5.06-5.309-7.804c-0.453-0.841-0.923-1.709-1.403-2.539
			C8.191,53.685,1.346,53.205,1.278,53.201l-0.016-0.633c4.713-0.456,10.204-7.43,10.259-7.5c1.145-1.472,2.128-3.197,3.078-4.866
			c1.401-2.459,2.85-5.001,4.894-6.918c4.92-4.612,9.916-5.685,10.443-5.788c0.405-0.179,0.953-0.349,1.633-0.515
			c-0.267-2.246-0.401-4.463-0.401-6.609c0-7.091,1.447-13.383,4.3-18.731l0.561,0.33C36.04,1.95,36.042,2,36.042,2h0.002
			c0,0,0.197,0.779,2.639,3.578L38.8,5.637c2.695,3.138,5.775,5.401,8.865,6.545c2.521,0.934,5.291,1.204,7.927,1.466
			c2.261,0.225,4.687,0.457,6.924,1.103c2.754,0.795,9.519,3.199,11.2,8.345c0.013,0.039,1.435,3.811,1.435,8.63
			c0,0.001,0.021,0.979,0.021,0.979c-0.456,4.214-1.044,6.761-2.777,9.573c1.371,1.066,5.755,5.002,10.611,11.941l0.152,0.218
			L82.971,54.625z M67.19,47.122c-0.09,0.055-9.051,5.317-16.318-4.331c-0.834,0.683-1.698,1.501-2.697,2.551
			c-2.175,2.284-4.308,5.029-6.518,8.387c2.396,3.748,4.474,6.229,4.486,6.245c1.221,1.343,2.508,2.515,3.828,3.487
			c1.759-2.044,3.885-3.406,6.321-4.053c0.438-0.157,8.789-3.032,13.997,3.438l0.026,0.038c0.008,0.014,0.172,0.292,0.434,0.8
			c5.336-3.293,10.537-8.296,11.581-9.32c-4.705-6.666-9.251-10.468-10.638-11.552C70.529,44.532,69.017,45.98,67.19,47.122z
			 M65.061,67c-0.461,0.179-7.285,2.673-14.977-2.678c-4.888,6.15-5.126,16.251-5.128,16.354l-0.005,0.283l-0.282,0.026
			c-3.41,0.327-6.956,0.234-10.257-0.269c-1.301-0.198-2.691-0.425-4.087-0.742l-0.229,0.877c-0.29,1.106-0.486,2.271-0.584,3.46
			c-0.054,0.649-0.081,1.324-0.081,2.003c0,3.821,0.838,7.587,1.742,11.086c0.048,0.185,0.322,0.871,0.612,1.598
			c0.653,1.636,1.223,3.092,1.472,3.995c1.71-2.369,3.893-4.418,6.351-5.956c4.474-2.799,9.686-3.688,14.727-4.549
			c5.175-0.883,10.525-1.796,15.058-4.78c3.902-2.569,4.722-6.056,4.722-8.528c0-1.323-0.246-2.227-0.248-2.235l-0.011-0.065
			c-0.341-5.454-2.359-10.222-3.364-12.295C68.468,65.781,66.643,66.594,65.061,67z M31.803,20.356c0,2.101,0.131,4.277,0.39,6.475
			c4.505-0.963,12.506-1.41,12.588-1.415l0.297-0.016l0.035,0.295c0.467,3.887,3.445,11.913,3.466,11.97
			c0.741,1.576,1.554,2.994,2.418,4.218c0.698-0.533,1.377-0.976,2.066-1.346c0.087-0.047,8.769-4.58,18.461,1.368
			c1.654-2.705,2.479-6.067,2.492-9.991c0-4.714-1.245-8.584-1.258-8.622c-1.587-4.857-7.938-7.165-10.596-7.932
			c-2.181-0.629-4.489-0.858-6.722-1.081c-2.676-0.266-5.442-0.54-8.04-1.502c-3.19-1.181-6.339-3.508-9.104-6.728l-0.103-0.117
			c-1.514-1.734-2.216-2.72-2.535-3.311C33.1,7.724,31.803,13.685,31.803,20.356z M66.857,46.581
			c1.754-1.096,3.207-2.488,4.322-4.143c-9.357-5.744-17.733-1.387-17.816-1.342c-0.663,0.356-1.317,0.783-1.993,1.3
			C58.285,51.596,66.512,46.79,66.857,46.581z M56.5,60.009l-0.03,0.01c-2.3,0.606-4.31,1.889-5.979,3.813
			c7.608,5.266,14.281,2.601,14.349,2.573l0.044-0.015c1.539-0.393,3.328-1.191,5.321-2.375c-0.227-0.441-0.383-0.716-0.425-0.788
			C64.749,57,56.582,59.978,56.5,60.009z M32.271,27.464c0.863,6.717,2.645,11.513,2.663,11.561l0.011,0.035
			c1.33,5.353,4.128,10.542,6.341,14.08c2.175-3.28,4.28-5.979,6.43-8.236c1.027-1.08,1.919-1.922,2.782-2.626
			c-0.894-1.261-1.732-2.722-2.504-4.366c-0.121-0.324-2.896-7.801-3.472-11.844C43.03,26.158,36.229,26.607,32.271,27.464z
			 M40.133,56.117c-1.74,2.805-3.948,6.527-5.583,10.442c-1.703,4.083-2.899,8.385-4.063,12.801c1.369,0.31,2.738,0.533,4.021,0.729
			c3.16,0.481,6.551,0.581,9.824,0.29c0.077-1.708,0.699-10.693,5.235-16.428c-1.345-0.993-2.653-2.187-3.901-3.559
			c-0.021-0.025-2.035-2.43-4.39-6.081C40.904,54.887,40.527,55.481,40.133,56.117z M31.648,27.608
			c-0.627,0.155-1.126,0.316-1.486,0.479l-0.073,0.023c-0.052,0.009-5.214,0.997-10.161,5.635c-1.974,1.852-3.398,4.353-4.776,6.771
			c-0.961,1.688-1.956,3.435-3.129,4.942c-0.208,0.268-4.68,5.942-9.205,7.419c2.466,0.758,7.582,3.354,12.723,12.232
			c0.485,0.838,0.957,1.711,1.412,2.556c1.459,2.702,2.968,5.495,5.191,7.648c1.877,1.818,4.338,3.062,7.726,3.9
			c1.17-4.444,2.374-8.774,4.095-12.898c1.651-3.958,3.876-7.708,5.63-10.533c0.452-0.729,0.881-1.404,1.308-2.059l0,0l0,0
			c-2.258-3.578-5.187-8.94-6.569-14.494C34.21,38.899,32.498,34.161,31.648,27.608z"/>
	</g>
</g>
</svg>
